<svg width="257" height="257" viewBox="0 0 257 257" fill="none" xmlns="http://www.w3.org/2000/svg">
<path d="M24.2081 16.5081H16.4839V24.2322H24.2081V16.5081Z" fill="white"/>
<path d="M31.9322 16.5081H24.2081V24.2322H31.9322V16.5081Z" fill="white"/>
<path d="M39.6564 16.5081H31.9322V24.2322H39.6564V16.5081Z" fill="white"/>
<path d="M47.3805 16.5081H39.6564V24.2322H47.3805V16.5081Z" fill="white"/>
<path d="M55.1046 16.5081H47.3805V24.2322H55.1046V16.5081Z" fill="white"/>
<path d="M62.8288 16.5081H55.1046V24.2322H62.8288V16.5081Z" fill="white"/>
<path d="M70.5529 16.5081H62.8288V24.2322H70.5529V16.5081Z" fill="white"/>
<path d="M86.0012 16.5081H78.2771V24.2322H86.0012V16.5081Z" fill="white"/>
<path d="M93.7253 16.5081H86.0012V24.2322H93.7253V16.5081Z" fill="white"/>
<path d="M116.898 16.5081H109.174V24.2322H116.898V16.5081Z" fill="white"/>
<path d="M124.622 16.5081H116.898V24.2322H124.622V16.5081Z" fill="white"/>
<path d="M163.243 16.5081H155.518V24.2322H163.243V16.5081Z" fill="white"/>
<path d="M194.139 16.5081H186.415V24.2322H194.139V16.5081Z" fill="white"/>
<path d="M201.863 16.5081H194.139V24.2322H201.863V16.5081Z" fill="white"/>
<path d="M209.587 16.5081H201.863V24.2322H209.587V16.5081Z" fill="white"/>
<path d="M217.312 16.5081H209.587V24.2322H217.312V16.5081Z" fill="white"/>
<path d="M225.036 16.5081H217.312V24.2322H225.036V16.5081Z" fill="white"/>
<path d="M232.76 16.5081H225.036V24.2322H232.76V16.5081Z" fill="white"/>
<path d="M240.484 16.5081H232.76V24.2322H240.484V16.5081Z" fill="white"/>
<path d="M24.2081 24.2322H16.4839V31.9563H24.2081V24.2322Z" fill="white"/>
<path d="M70.5529 24.2322H62.8288V31.9563H70.5529V24.2322Z" fill="white"/>
<path d="M93.7253 24.2322H86.0012V31.9563H93.7253V24.2322Z" fill="white"/>
<path d="M101.449 24.2322H93.7253V31.9563H101.449V24.2322Z" fill="white"/>
<path d="M140.07 24.2322H132.346V31.9563H140.07V24.2322Z" fill="white"/>
<path d="M147.794 24.2322H140.07V31.9563H147.794V24.2322Z" fill="white"/>
<path d="M155.518 24.2322H147.794V31.9563H155.518V24.2322Z" fill="white"/>
<path d="M178.691 24.2322H170.967V31.9563H178.691V24.2322Z" fill="white"/>
<path d="M194.139 24.2322H186.415V31.9563H194.139V24.2322Z" fill="white"/>
<path d="M240.484 24.2322H232.76V31.9563H240.484V24.2322Z" fill="white"/>
<path d="M24.2081 31.9563H16.4839V39.6805H24.2081V31.9563Z" fill="white"/>
<path d="M39.6564 31.9563H31.9322V39.6805H39.6564V31.9563Z" fill="white"/>
<path d="M47.3805 31.9563H39.6564V39.6805H47.3805V31.9563Z" fill="white"/>
<path d="M55.1046 31.9563H47.3805V39.6805H55.1046V31.9563Z" fill="white"/>
<path d="M70.5529 31.9563H62.8288V39.6805H70.5529V31.9563Z" fill="white"/>
<path d="M86.0012 31.9563H78.2771V39.6805H86.0012V31.9563Z" fill="white"/>
<path d="M101.449 31.9563H93.7253V39.6805H101.449V31.9563Z" fill="white"/>
<path d="M109.174 31.9563H101.449V39.6805H109.174V31.9563Z" fill="white"/>
<path d="M147.794 31.9563H140.07V39.6805H147.794V31.9563Z" fill="white"/>
<path d="M178.691 31.9563H170.967V39.6805H178.691V31.9563Z" fill="white"/>
<path d="M194.139 31.9563H186.415V39.6805H194.139V31.9563Z" fill="white"/>
<path d="M209.587 31.9563H201.863V39.6805H209.587V31.9563Z" fill="white"/>
<path d="M217.312 31.9563H209.587V39.6805H217.312V31.9563Z" fill="white"/>
<path d="M225.036 31.9563H217.312V39.6805H225.036V31.9563Z" fill="white"/>
<path d="M240.484 31.9563H232.76V39.6805H240.484V31.9563Z" fill="white"/>
<path d="M24.2081 39.6805H16.4839V47.4046H24.2081V39.6805Z" fill="white"/>
<path d="M39.6564 39.6805H31.9322V47.4046H39.6564V39.6805Z" fill="white"/>
<path d="M47.3805 39.6805H39.6564V47.4046H47.3805V39.6805Z" fill="white"/>
<path d="M55.1046 39.6805H47.3805V47.4046H55.1046V39.6805Z" fill="white"/>
<path d="M70.5529 39.6805H62.8288V47.4046H70.5529V39.6805Z" fill="white"/>
<path d="M86.0012 39.6805H78.2771V47.4046H86.0012V39.6805Z" fill="white"/>
<path d="M93.7253 39.6805H86.0012V47.4046H93.7253V39.6805Z" fill="white"/>
<path d="M101.449 39.6805H93.7253V47.4046H101.449V39.6805Z" fill="white"/>
<path d="M109.174 39.6805H101.449V47.4046H109.174V39.6805Z" fill="white"/>
<path d="M124.622 39.6805H116.898V47.4046H124.622V39.6805Z" fill="white"/>
<path d="M132.346 39.6805H124.622V47.4046H132.346V39.6805Z" fill="white"/>
<path d="M140.07 39.6805H132.346V47.4046H140.07V39.6805Z" fill="white"/>
<path d="M147.794 39.6805H140.07V47.4046H147.794V39.6805Z" fill="white"/>
<path d="M163.243 39.6805H155.518V47.4046H163.243V39.6805Z" fill="white"/>
<path d="M194.139 39.6805H186.415V47.4046H194.139V39.6805Z" fill="white"/>
<path d="M209.587 39.6805H201.863V47.4046H209.587V39.6805Z" fill="white"/>
<path d="M217.312 39.6805H209.587V47.4046H217.312V39.6805Z" fill="white"/>
<path d="M225.036 39.6805H217.312V47.4046H225.036V39.6805Z" fill="white"/>
<path d="M240.484 39.6805H232.76V47.4046H240.484V39.6805Z" fill="white"/>
<path d="M24.2081 47.4046H16.4839V55.1287H24.2081V47.4046Z" fill="white"/>
<path d="M39.6564 47.4046H31.9322V55.1287H39.6564V47.4046Z" fill="white"/>
<path d="M47.3805 47.4046H39.6564V55.1287H47.3805V47.4046Z" fill="white"/>
<path d="M55.1046 47.4046H47.3805V55.1287H55.1046V47.4046Z" fill="white"/>
<path d="M70.5529 47.4046H62.8288V55.1287H70.5529V47.4046Z" fill="white"/>
<path d="M101.449 47.4046H93.7253V55.1287H101.449V47.4046Z" fill="white"/>
<path d="M109.174 47.4046H101.449V55.1287H109.174V47.4046Z" fill="white"/>
<path d="M124.622 47.4046H116.898V55.1287H124.622V47.4046Z" fill="white"/>
<path d="M132.346 47.4046H124.622V55.1287H132.346V47.4046Z" fill="white"/>
<path d="M140.07 47.4046H132.346V55.1287H140.07V47.4046Z" fill="white"/>
<path d="M147.794 47.4046H140.07V55.1287H147.794V47.4046Z" fill="white"/>
<path d="M155.518 47.4046H147.794V55.1287H155.518V47.4046Z" fill="white"/>
<path d="M163.243 47.4046H155.518V55.1287H163.243V47.4046Z" fill="white"/>
<path d="M178.691 47.4046H170.967V55.1287H178.691V47.4046Z" fill="white"/>
<path d="M194.139 47.4046H186.415V55.1287H194.139V47.4046Z" fill="white"/>
<path d="M209.587 47.4046H201.863V55.1287H209.587V47.4046Z" fill="white"/>
<path d="M217.312 47.4046H209.587V55.1287H217.312V47.4046Z" fill="white"/>
<path d="M225.036 47.4046H217.312V55.1287H225.036V47.4046Z" fill="white"/>
<path d="M240.484 47.4046H232.76V55.1287H240.484V47.4046Z" fill="white"/>
<path d="M24.2081 55.1287H16.4839V62.8529H24.2081V55.1287Z" fill="white"/>
<path d="M70.5529 55.1287H62.8288V62.8529H70.5529V55.1287Z" fill="white"/>
<path d="M86.0012 55.1287H78.2771V62.8529H86.0012V55.1287Z" fill="white"/>
<path d="M109.174 55.1287H101.449V62.8529H109.174V55.1287Z" fill="white"/>
<path d="M116.898 55.1287H109.174V62.8529H116.898V55.1287Z" fill="white"/>
<path d="M124.622 55.1287H116.898V62.8529H124.622V55.1287Z" fill="white"/>
<path d="M155.518 55.1287H147.794V62.8529H155.518V55.1287Z" fill="white"/>
<path d="M163.243 55.1287H155.518V62.8529H163.243V55.1287Z" fill="white"/>
<path d="M178.691 55.1287H170.967V62.8529H178.691V55.1287Z" fill="white"/>
<path d="M194.139 55.1287H186.415V62.8529H194.139V55.1287Z" fill="white"/>
<path d="M240.484 55.1287H232.76V62.8529H240.484V55.1287Z" fill="white"/>
<path d="M24.2081 62.8529H16.4839V70.577H24.2081V62.8529Z" fill="white"/>
<path d="M31.9322 62.8529H24.2081V70.577H31.9322V62.8529Z" fill="white"/>
<path d="M39.6564 62.8529H31.9322V70.577H39.6564V62.8529Z" fill="white"/>
<path d="M47.3805 62.8529H39.6564V70.577H47.3805V62.8529Z" fill="white"/>
<path d="M55.1046 62.8529H47.3805V70.577H55.1046V62.8529Z" fill="white"/>
<path d="M62.8288 62.8529H55.1046V70.577H62.8288V62.8529Z" fill="white"/>
<path d="M70.5529 62.8529H62.8288V70.577H70.5529V62.8529Z" fill="white"/>
<path d="M86.0012 62.8529H78.2771V70.577H86.0012V62.8529Z" fill="white"/>
<path d="M101.449 62.8529H93.7253V70.577H101.449V62.8529Z" fill="white"/>
<path d="M116.898 62.8529H109.174V70.577H116.898V62.8529Z" fill="white"/>
<path d="M132.346 62.8529H124.622V70.577H132.346V62.8529Z" fill="white"/>
<path d="M147.794 62.8529H140.07V70.577H147.794V62.8529Z" fill="white"/>
<path d="M163.243 62.8529H155.518V70.577H163.243V62.8529Z" fill="white"/>
<path d="M178.691 62.8529H170.967V70.577H178.691V62.8529Z" fill="white"/>
<path d="M194.139 62.8529H186.415V70.577H194.139V62.8529Z" fill="white"/>
<path d="M201.863 62.8529H194.139V70.577H201.863V62.8529Z" fill="white"/>
<path d="M209.587 62.8529H201.863V70.577H209.587V62.8529Z" fill="white"/>
<path d="M217.312 62.8529H209.587V70.577H217.312V62.8529Z" fill="white"/>
<path d="M225.036 62.8529H217.312V70.577H225.036V62.8529Z" fill="white"/>
<path d="M232.76 62.8529H225.036V70.577H232.76V62.8529Z" fill="white"/>
<path d="M240.484 62.8529H232.76V70.577H240.484V62.8529Z" fill="white"/>
<path d="M86.0012 70.577H78.2771V78.3012H86.0012V70.577Z" fill="white"/>
<path d="M93.7253 70.577H86.0012V78.3012H93.7253V70.577Z" fill="white"/>
<path d="M101.449 70.577H93.7253V78.3012H101.449V70.577Z" fill="white"/>
<path d="M109.174 70.577H101.449V78.3012H109.174V70.577Z" fill="white"/>
<path d="M116.898 70.577H109.174V78.3012H116.898V70.577Z" fill="white"/>
<path d="M124.622 70.577H116.898V78.3012H124.622V70.577Z" fill="white"/>
<path d="M140.07 70.577H132.346V78.3012H140.07V70.577Z" fill="white"/>
<path d="M147.794 70.577H140.07V78.3012H147.794V70.577Z" fill="white"/>
<path d="M170.967 70.577H163.243V78.3012H170.967V70.577Z" fill="white"/>
<path d="M24.2081 78.3012H16.4839V86.0253H24.2081V78.3012Z" fill="white"/>
<path d="M31.9322 78.3012H24.2081V86.0253H31.9322V78.3012Z" fill="white"/>
<path d="M47.3805 78.3012H39.6564V86.0253H47.3805V78.3012Z" fill="white"/>
<path d="M70.5529 78.3012H62.8288V86.0253H70.5529V78.3012Z" fill="white"/>
<path d="M78.2771 78.3012H70.5529V86.0253H78.2771V78.3012Z" fill="white"/>
<path d="M116.898 78.3012H109.174V86.0253H116.898V78.3012Z" fill="white"/>
<path d="M186.415 78.3012H178.691V86.0253H186.415V78.3012Z" fill="white"/>
<path d="M194.139 78.3012H186.415V86.0253H194.139V78.3012Z" fill="white"/>
<path d="M201.863 78.3012H194.139V86.0253H201.863V78.3012Z" fill="white"/>
<path d="M217.312 78.3012H209.587V86.0253H217.312V78.3012Z" fill="white"/>
<path d="M225.036 78.3012H217.312V86.0253H225.036V78.3012Z" fill="white"/>
<path d="M240.484 78.3012H232.76V86.0253H240.484V78.3012Z" fill="white"/>
<path d="M31.9322 86.0253H24.2081V93.7494H31.9322V86.0253Z" fill="white"/>
<path d="M39.6564 86.0253H31.9322V93.7494H39.6564V86.0253Z" fill="white"/>
<path d="M47.3805 86.0253H39.6564V93.7494H47.3805V86.0253Z" fill="white"/>
<path d="M86.0012 86.0253H78.2771V93.7494H86.0012V86.0253Z" fill="white"/>
<path d="M93.7253 86.0253H86.0012V93.7494H93.7253V86.0253Z" fill="white"/>
<path d="M101.449 86.0253H93.7253V93.7494H101.449V86.0253Z" fill="white"/>
<path d="M116.898 86.0253H109.174V93.7494H116.898V86.0253Z" fill="white"/>
<path d="M140.07 86.0253H132.346V93.7494H140.07V86.0253Z" fill="white"/>
<path d="M147.794 86.0253H140.07V93.7494H147.794V86.0253Z" fill="white"/>
<path d="M155.518 86.0253H147.794V93.7494H155.518V86.0253Z" fill="white"/>
<path d="M163.243 86.0253H155.518V93.7494H163.243V86.0253Z" fill="white"/>
<path d="M170.967 86.0253H163.243V93.7494H170.967V86.0253Z" fill="white"/>
<path d="M178.691 86.0253H170.967V93.7494H178.691V86.0253Z" fill="white"/>
<path d="M186.415 86.0253H178.691V93.7494H186.415V86.0253Z" fill="white"/>
<path d="M201.863 86.0253H194.139V93.7494H201.863V86.0253Z" fill="white"/>
<path d="M209.587 86.0253H201.863V93.7494H209.587V86.0253Z" fill="white"/>
<path d="M217.312 86.0253H209.587V93.7494H217.312V86.0253Z" fill="white"/>
<path d="M225.036 86.0253H217.312V93.7494H225.036V86.0253Z" fill="white"/>
<path d="M232.76 86.0253H225.036V93.7494H232.76V86.0253Z" fill="white"/>
<path d="M31.9322 93.7494H24.2081V101.474H31.9322V93.7494Z" fill="white"/>
<path d="M39.6564 93.7494H31.9322V101.474H39.6564V93.7494Z" fill="white"/>
<path d="M47.3805 93.7494H39.6564V101.474H47.3805V93.7494Z" fill="white"/>
<path d="M55.1046 93.7494H47.3805V101.474H55.1046V93.7494Z" fill="white"/>
<path d="M62.8288 93.7494H55.1046V101.474H62.8288V93.7494Z" fill="white"/>
<path d="M70.5529 93.7494H62.8288V101.474H70.5529V93.7494Z" fill="white"/>
<path d="M78.2771 93.7494H70.5529V101.474H78.2771V93.7494Z" fill="white"/>
<path d="M86.0012 93.7494H78.2771V101.474H86.0012V93.7494Z" fill="white"/>
<path d="M124.622 93.7494H116.898V101.474H124.622V93.7494Z" fill="white"/>
<path d="M132.346 93.7494H124.622V101.474H132.346V93.7494Z" fill="white"/>
<path d="M140.07 93.7494H132.346V101.474H140.07V93.7494Z" fill="white"/>
<path d="M155.518 93.7494H147.794V101.474H155.518V93.7494Z" fill="white"/>
<path d="M163.243 93.7494H155.518V101.474H163.243V93.7494Z" fill="white"/>
<path d="M170.967 93.7494H163.243V101.474H170.967V93.7494Z" fill="white"/>
<path d="M178.691 93.7494H170.967V101.474H178.691V93.7494Z" fill="white"/>
<path d="M194.139 93.7494H186.415V101.474H194.139V93.7494Z" fill="white"/>
<path d="M209.587 93.7494H201.863V101.474H209.587V93.7494Z" fill="white"/>
<path d="M217.312 93.7494H209.587V101.474H217.312V93.7494Z" fill="white"/>
<path d="M225.036 93.7494H217.312V101.474H225.036V93.7494Z" fill="white"/>
<path d="M232.76 93.7494H225.036V101.474H232.76V93.7494Z" fill="white"/>
<path d="M240.484 93.7494H232.76V101.474H240.484V93.7494Z" fill="white"/>
<path d="M78.2771 101.474H70.5529V109.198H78.2771V101.474Z" fill="white"/>
<path d="M93.7253 101.474H86.0012V109.198H93.7253V101.474Z" fill="white"/>
<path d="M124.622 101.474H116.898V109.198H124.622V101.474Z" fill="white"/>
<path d="M132.346 101.474H124.622V109.198H132.346V101.474Z" fill="white"/>
<path d="M147.794 101.474H140.07V109.198H147.794V101.474Z" fill="white"/>
<path d="M186.415 101.474H178.691V109.198H186.415V101.474Z" fill="white"/>
<path d="M194.139 101.474H186.415V109.198H194.139V101.474Z" fill="white"/>
<path d="M225.036 101.474H217.312V109.198H225.036V101.474Z" fill="white"/>
<path d="M24.2081 109.198H16.4839V116.922H24.2081V109.198Z" fill="white"/>
<path d="M31.9322 109.198H24.2081V116.922H31.9322V109.198Z" fill="white"/>
<path d="M55.1046 109.198H47.3805V116.922H55.1046V109.198Z" fill="white"/>
<path d="M70.5529 109.198H62.8288V116.922H70.5529V109.198Z" fill="white"/>
<path d="M93.7253 109.198H86.0012V116.922H93.7253V109.198Z" fill="white"/>
<path d="M101.449 109.198H93.7253V116.922H101.449V109.198Z" fill="white"/>
<path d="M109.174 109.198H101.449V116.922H109.174V109.198Z" fill="white"/>
<path d="M116.898 109.198H109.174V116.922H116.898V109.198Z" fill="white"/>
<path d="M124.622 109.198H116.898V116.922H124.622V109.198Z" fill="white"/>
<path d="M132.346 109.198H124.622V116.922H132.346V109.198Z" fill="white"/>
<path d="M147.794 109.198H140.07V116.922H147.794V109.198Z" fill="white"/>
<path d="M163.243 109.198H155.518V116.922H163.243V109.198Z" fill="white"/>
<path d="M170.967 109.198H163.243V116.922H170.967V109.198Z" fill="white"/>
<path d="M178.691 109.198H170.967V116.922H178.691V109.198Z" fill="white"/>
<path d="M186.415 109.198H178.691V116.922H186.415V109.198Z" fill="white"/>
<path d="M194.139 109.198H186.415V116.922H194.139V109.198Z" fill="white"/>
<path d="M201.863 109.198H194.139V116.922H201.863V109.198Z" fill="white"/>
<path d="M209.587 109.198H201.863V116.922H209.587V109.198Z" fill="white"/>
<path d="M225.036 109.198H217.312V116.922H225.036V109.198Z" fill="white"/>
<path d="M39.6564 116.922H31.9322V124.646H39.6564V116.922Z" fill="white"/>
<path d="M55.1046 116.922H47.3805V124.646H55.1046V116.922Z" fill="white"/>
<path d="M78.2771 116.922H70.5529V124.646H78.2771V116.922Z" fill="white"/>
<path d="M86.0012 116.922H78.2771V124.646H86.0012V116.922Z" fill="white"/>
<path d="M109.174 116.922H101.449V124.646H109.174V116.922Z" fill="white"/>
<path d="M124.622 116.922H116.898V124.646H124.622V116.922Z" fill="white"/>
<path d="M140.07 116.922H132.346V124.646H140.07V116.922Z" fill="white"/>
<path d="M155.518 116.922H147.794V124.646H155.518V116.922Z" fill="white"/>
<path d="M178.691 116.922H170.967V124.646H178.691V116.922Z" fill="white"/>
<path d="M186.415 116.922H178.691V124.646H186.415V116.922Z" fill="white"/>
<path d="M194.139 116.922H186.415V124.646H194.139V116.922Z" fill="white"/>
<path d="M232.76 116.922H225.036V124.646H232.76V116.922Z" fill="white"/>
<path d="M31.9322 124.646H24.2081V132.37H31.9322V124.646Z" fill="white"/>
<path d="M39.6564 124.646H31.9322V132.37H39.6564V124.646Z" fill="white"/>
<path d="M62.8288 124.646H55.1046V132.37H62.8288V124.646Z" fill="white"/>
<path d="M70.5529 124.646H62.8288V132.37H70.5529V124.646Z" fill="white"/>
<path d="M78.2771 124.646H70.5529V132.37H78.2771V124.646Z" fill="white"/>
<path d="M86.0012 124.646H78.2771V132.37H86.0012V124.646Z" fill="white"/>
<path d="M101.449 124.646H93.7253V132.37H101.449V124.646Z" fill="white"/>
<path d="M109.174 124.646H101.449V132.37H109.174V124.646Z" fill="white"/>
<path d="M132.346 124.646H124.622V132.37H132.346V124.646Z" fill="white"/>
<path d="M186.415 124.646H178.691V132.37H186.415V124.646Z" fill="white"/>
<path d="M209.587 124.646H201.863V132.37H209.587V124.646Z" fill="white"/>
<path d="M217.312 124.646H209.587V132.37H217.312V124.646Z" fill="white"/>
<path d="M225.036 124.646H217.312V132.37H225.036V124.646Z" fill="white"/>
<path d="M24.2081 132.37H16.4839V140.094H24.2081V132.37Z" fill="white"/>
<path d="M31.9322 132.37H24.2081V140.094H31.9322V132.37Z" fill="white"/>
<path d="M39.6564 132.37H31.9322V140.094H39.6564V132.37Z" fill="white"/>
<path d="M78.2771 132.37H70.5529V140.094H78.2771V132.37Z" fill="white"/>
<path d="M86.0012 132.37H78.2771V140.094H86.0012V132.37Z" fill="white"/>
<path d="M116.898 132.37H109.174V140.094H116.898V132.37Z" fill="white"/>
<path d="M124.622 132.37H116.898V140.094H124.622V132.37Z" fill="white"/>
<path d="M147.794 132.37H140.07V140.094H147.794V132.37Z" fill="white"/>
<path d="M155.518 132.37H147.794V140.094H155.518V132.37Z" fill="white"/>
<path d="M163.243 132.37H155.518V140.094H163.243V132.37Z" fill="white"/>
<path d="M170.967 132.37H163.243V140.094H170.967V132.37Z" fill="white"/>
<path d="M178.691 132.37H170.967V140.094H178.691V132.37Z" fill="white"/>
<path d="M201.863 132.37H194.139V140.094H201.863V132.37Z" fill="white"/>
<path d="M217.312 132.37H209.587V140.094H217.312V132.37Z" fill="white"/>
<path d="M24.2081 140.094H16.4839V147.818H24.2081V140.094Z" fill="white"/>
<path d="M70.5529 140.094H62.8288V147.818H70.5529V140.094Z" fill="white"/>
<path d="M78.2771 140.094H70.5529V147.818H78.2771V140.094Z" fill="white"/>
<path d="M86.0012 140.094H78.2771V147.818H86.0012V140.094Z" fill="white"/>
<path d="M101.449 140.094H93.7253V147.818H101.449V140.094Z" fill="white"/>
<path d="M109.174 140.094H101.449V147.818H109.174V140.094Z" fill="white"/>
<path d="M124.622 140.094H116.898V147.818H124.622V140.094Z" fill="white"/>
<path d="M132.346 140.094H124.622V147.818H132.346V140.094Z" fill="white"/>
<path d="M147.794 140.094H140.07V147.818H147.794V140.094Z" fill="white"/>
<path d="M170.967 140.094H163.243V147.818H170.967V140.094Z" fill="white"/>
<path d="M178.691 140.094H170.967V147.818H178.691V140.094Z" fill="white"/>
<path d="M194.139 140.094H186.415V147.818H194.139V140.094Z" fill="white"/>
<path d="M217.312 140.094H209.587V147.818H217.312V140.094Z" fill="white"/>
<path d="M24.2081 147.818H16.4839V155.543H24.2081V147.818Z" fill="white"/>
<path d="M31.9322 147.818H24.2081V155.543H31.9322V147.818Z" fill="white"/>
<path d="M47.3805 147.818H39.6564V155.543H47.3805V147.818Z" fill="white"/>
<path d="M55.1046 147.818H47.3805V155.543H55.1046V147.818Z" fill="white"/>
<path d="M78.2771 147.818H70.5529V155.543H78.2771V147.818Z" fill="white"/>
<path d="M86.0012 147.818H78.2771V155.543H86.0012V147.818Z" fill="white"/>
<path d="M101.449 147.818H93.7253V155.543H101.449V147.818Z" fill="white"/>
<path d="M116.898 147.818H109.174V155.543H116.898V147.818Z" fill="white"/>
<path d="M124.622 147.818H116.898V155.543H124.622V147.818Z" fill="white"/>
<path d="M132.346 147.818H124.622V155.543H132.346V147.818Z" fill="white"/>
<path d="M170.967 147.818H163.243V155.543H170.967V147.818Z" fill="white"/>
<path d="M178.691 147.818H170.967V155.543H178.691V147.818Z" fill="white"/>
<path d="M194.139 147.818H186.415V155.543H194.139V147.818Z" fill="white"/>
<path d="M209.587 147.818H201.863V155.543H209.587V147.818Z" fill="white"/>
<path d="M225.036 147.818H217.312V155.543H225.036V147.818Z" fill="white"/>
<path d="M24.2081 155.543H16.4839V163.267H24.2081V155.543Z" fill="white"/>
<path d="M39.6564 155.543H31.9322V163.267H39.6564V155.543Z" fill="white"/>
<path d="M55.1046 155.543H47.3805V163.267H55.1046V155.543Z" fill="white"/>
<path d="M70.5529 155.543H62.8288V163.267H70.5529V155.543Z" fill="white"/>
<path d="M86.0012 155.543H78.2771V163.267H86.0012V155.543Z" fill="white"/>
<path d="M101.449 155.543H93.7253V163.267H101.449V155.543Z" fill="white"/>
<path d="M124.622 155.543H116.898V163.267H124.622V155.543Z" fill="white"/>
<path d="M140.07 155.543H132.346V163.267H140.07V155.543Z" fill="white"/>
<path d="M147.794 155.543H140.07V163.267H147.794V155.543Z" fill="white"/>
<path d="M163.243 155.543H155.518V163.267H163.243V155.543Z" fill="white"/>
<path d="M170.967 155.543H163.243V163.267H170.967V155.543Z" fill="white"/>
<path d="M178.691 155.543H170.967V163.267H178.691V155.543Z" fill="white"/>
<path d="M194.139 155.543H186.415V163.267H194.139V155.543Z" fill="white"/>
<path d="M209.587 155.543H201.863V163.267H209.587V155.543Z" fill="white"/>
<path d="M225.036 155.543H217.312V163.267H225.036V155.543Z" fill="white"/>
<path d="M232.76 155.543H225.036V163.267H232.76V155.543Z" fill="white"/>
<path d="M240.484 155.543H232.76V163.267H240.484V155.543Z" fill="white"/>
<path d="M24.2081 163.267H16.4839V170.991H24.2081V163.267Z" fill="white"/>
<path d="M55.1046 163.267H47.3805V170.991H55.1046V163.267Z" fill="white"/>
<path d="M62.8288 163.267H55.1046V170.991H62.8288V163.267Z" fill="white"/>
<path d="M78.2771 163.267H70.5529V170.991H78.2771V163.267Z" fill="white"/>
<path d="M86.0012 163.267H78.2771V170.991H86.0012V163.267Z" fill="white"/>
<path d="M93.7253 163.267H86.0012V170.991H93.7253V163.267Z" fill="white"/>
<path d="M124.622 163.267H116.898V170.991H124.622V163.267Z" fill="white"/>
<path d="M132.346 163.267H124.622V170.991H132.346V163.267Z" fill="white"/>
<path d="M147.794 163.267H140.07V170.991H147.794V163.267Z" fill="white"/>
<path d="M194.139 163.267H186.415V170.991H194.139V163.267Z" fill="white"/>
<path d="M217.312 163.267H209.587V170.991H217.312V163.267Z" fill="white"/>
<path d="M232.76 163.267H225.036V170.991H232.76V163.267Z" fill="white"/>
<path d="M240.484 163.267H232.76V170.991H240.484V163.267Z" fill="white"/>
<path d="M24.2081 170.991H16.4839V178.715H24.2081V170.991Z" fill="white"/>
<path d="M31.9322 170.991H24.2081V178.715H31.9322V170.991Z" fill="white"/>
<path d="M47.3805 170.991H39.6564V178.715H47.3805V170.991Z" fill="white"/>
<path d="M62.8288 170.991H55.1046V178.715H62.8288V170.991Z" fill="white"/>
<path d="M70.5529 170.991H62.8288V178.715H70.5529V170.991Z" fill="white"/>
<path d="M78.2771 170.991H70.5529V178.715H78.2771V170.991Z" fill="white"/>
<path d="M93.7253 170.991H86.0012V178.715H93.7253V170.991Z" fill="white"/>
<path d="M116.898 170.991H109.174V178.715H116.898V170.991Z" fill="white"/>
<path d="M140.07 170.991H132.346V178.715H140.07V170.991Z" fill="white"/>
<path d="M147.794 170.991H140.07V178.715H147.794V170.991Z" fill="white"/>
<path d="M155.518 170.991H147.794V178.715H155.518V170.991Z" fill="white"/>
<path d="M178.691 170.991H170.967V178.715H178.691V170.991Z" fill="white"/>
<path d="M186.415 170.991H178.691V178.715H186.415V170.991Z" fill="white"/>
<path d="M194.139 170.991H186.415V178.715H194.139V170.991Z" fill="white"/>
<path d="M201.863 170.991H194.139V178.715H201.863V170.991Z" fill="white"/>
<path d="M209.587 170.991H201.863V178.715H209.587V170.991Z" fill="white"/>
<path d="M217.312 170.991H209.587V178.715H217.312V170.991Z" fill="white"/>
<path d="M232.76 170.991H225.036V178.715H232.76V170.991Z" fill="white"/>
<path d="M240.484 170.991H232.76V178.715H240.484V170.991Z" fill="white"/>
<path d="M93.7253 178.715H86.0012V186.439H93.7253V178.715Z" fill="white"/>
<path d="M147.794 178.715H140.07V186.439H147.794V178.715Z" fill="white"/>
<path d="M155.518 178.715H147.794V186.439H155.518V178.715Z" fill="white"/>
<path d="M178.691 178.715H170.967V186.439H178.691V178.715Z" fill="white"/>
<path d="M209.587 178.715H201.863V186.439H209.587V178.715Z" fill="white"/>
<path d="M217.312 178.715H209.587V186.439H217.312V178.715Z" fill="white"/>
<path d="M232.76 178.715H225.036V186.439H232.76V178.715Z" fill="white"/>
<path d="M24.2081 186.439H16.4839V194.163H24.2081V186.439Z" fill="white"/>
<path d="M31.9322 186.439H24.2081V194.163H31.9322V186.439Z" fill="white"/>
<path d="M39.6564 186.439H31.9322V194.163H39.6564V186.439Z" fill="white"/>
<path d="M47.3805 186.439H39.6564V194.163H47.3805V186.439Z" fill="white"/>
<path d="M55.1046 186.439H47.3805V194.163H55.1046V186.439Z" fill="white"/>
<path d="M62.8288 186.439H55.1046V194.163H62.8288V186.439Z" fill="white"/>
<path d="M70.5529 186.439H62.8288V194.163H70.5529V186.439Z" fill="white"/>
<path d="M86.0012 186.439H78.2771V194.163H86.0012V186.439Z" fill="white"/>
<path d="M93.7253 186.439H86.0012V194.163H93.7253V186.439Z" fill="white"/>
<path d="M124.622 186.439H116.898V194.163H124.622V186.439Z" fill="white"/>
<path d="M178.691 186.439H170.967V194.163H178.691V186.439Z" fill="white"/>
<path d="M194.139 186.439H186.415V194.163H194.139V186.439Z" fill="white"/>
<path d="M209.587 186.439H201.863V194.163H209.587V186.439Z" fill="white"/>
<path d="M240.484 186.439H232.76V194.163H240.484V186.439Z" fill="white"/>
<path d="M24.2081 194.163H16.4839V201.887H24.2081V194.163Z" fill="white"/>
<path d="M70.5529 194.163H62.8288V201.887H70.5529V194.163Z" fill="white"/>
<path d="M93.7253 194.163H86.0012V201.887H93.7253V194.163Z" fill="white"/>
<path d="M101.449 194.163H93.7253V201.887H101.449V194.163Z" fill="white"/>
<path d="M109.174 194.163H101.449V201.887H109.174V194.163Z" fill="white"/>
<path d="M124.622 194.163H116.898V201.887H124.622V194.163Z" fill="white"/>
<path d="M132.346 194.163H124.622V201.887H132.346V194.163Z" fill="white"/>
<path d="M140.07 194.163H132.346V201.887H140.07V194.163Z" fill="white"/>
<path d="M155.518 194.163H147.794V201.887H155.518V194.163Z" fill="white"/>
<path d="M163.243 194.163H155.518V201.887H163.243V194.163Z" fill="white"/>
<path d="M178.691 194.163H170.967V201.887H178.691V194.163Z" fill="white"/>
<path d="M209.587 194.163H201.863V201.887H209.587V194.163Z" fill="white"/>
<path d="M225.036 194.163H217.312V201.887H225.036V194.163Z" fill="white"/>
<path d="M232.76 194.163H225.036V201.887H232.76V194.163Z" fill="white"/>
<path d="M24.2081 201.887H16.4839V209.611H24.2081V201.887Z" fill="white"/>
<path d="M39.6564 201.887H31.9322V209.611H39.6564V201.887Z" fill="white"/>
<path d="M47.3805 201.887H39.6564V209.611H47.3805V201.887Z" fill="white"/>
<path d="M55.1046 201.887H47.3805V209.611H55.1046V201.887Z" fill="white"/>
<path d="M70.5529 201.887H62.8288V209.611H70.5529V201.887Z" fill="white"/>
<path d="M93.7253 201.887H86.0012V209.611H93.7253V201.887Z" fill="white"/>
<path d="M101.449 201.887H93.7253V209.611H101.449V201.887Z" fill="white"/>
<path d="M109.174 201.887H101.449V209.611H109.174V201.887Z" fill="white"/>
<path d="M132.346 201.887H124.622V209.611H132.346V201.887Z" fill="white"/>
<path d="M140.07 201.887H132.346V209.611H140.07V201.887Z" fill="white"/>
<path d="M147.794 201.887H140.07V209.611H147.794V201.887Z" fill="white"/>
<path d="M178.691 201.887H170.967V209.611H178.691V201.887Z" fill="white"/>
<path d="M186.415 201.887H178.691V209.611H186.415V201.887Z" fill="white"/>
<path d="M194.139 201.887H186.415V209.611H194.139V201.887Z" fill="white"/>
<path d="M201.863 201.887H194.139V209.611H201.863V201.887Z" fill="white"/>
<path d="M209.587 201.887H201.863V209.611H209.587V201.887Z" fill="white"/>
<path d="M217.312 201.887H209.587V209.611H217.312V201.887Z" fill="white"/>
<path d="M24.2081 209.611H16.4839V217.336H24.2081V209.611Z" fill="white"/>
<path d="M39.6564 209.611H31.9322V217.336H39.6564V209.611Z" fill="white"/>
<path d="M47.3805 209.611H39.6564V217.336H47.3805V209.611Z" fill="white"/>
<path d="M55.1046 209.611H47.3805V217.336H55.1046V209.611Z" fill="white"/>
<path d="M70.5529 209.611H62.8288V217.336H70.5529V209.611Z" fill="white"/>
<path d="M86.0012 209.611H78.2771V217.336H86.0012V209.611Z" fill="white"/>
<path d="M116.898 209.611H109.174V217.336H116.898V209.611Z" fill="white"/>
<path d="M147.794 209.611H140.07V217.336H147.794V209.611Z" fill="white"/>
<path d="M155.518 209.611H147.794V217.336H155.518V209.611Z" fill="white"/>
<path d="M178.691 209.611H170.967V217.336H178.691V209.611Z" fill="white"/>
<path d="M186.415 209.611H178.691V217.336H186.415V209.611Z" fill="white"/>
<path d="M194.139 209.611H186.415V217.336H194.139V209.611Z" fill="white"/>
<path d="M201.863 209.611H194.139V217.336H201.863V209.611Z" fill="white"/>
<path d="M217.312 209.611H209.587V217.336H217.312V209.611Z" fill="white"/>
<path d="M232.76 209.611H225.036V217.336H232.76V209.611Z" fill="white"/>
<path d="M240.484 209.611H232.76V217.336H240.484V209.611Z" fill="white"/>
<path d="M24.2081 217.336H16.4839V225.06H24.2081V217.336Z" fill="white"/>
<path d="M39.6564 217.336H31.9322V225.06H39.6564V217.336Z" fill="white"/>
<path d="M47.3805 217.336H39.6564V225.06H47.3805V217.336Z" fill="white"/>
<path d="M55.1046 217.336H47.3805V225.06H55.1046V217.336Z" fill="white"/>
<path d="M70.5529 217.336H62.8288V225.06H70.5529V217.336Z" fill="white"/>
<path d="M101.449 217.336H93.7253V225.06H101.449V217.336Z" fill="white"/>
<path d="M116.898 217.336H109.174V225.06H116.898V217.336Z" fill="white"/>
<path d="M124.622 217.336H116.898V225.06H124.622V217.336Z" fill="white"/>
<path d="M132.346 217.336H124.622V225.06H132.346V217.336Z" fill="white"/>
<path d="M155.518 217.336H147.794V225.06H155.518V217.336Z" fill="white"/>
<path d="M163.243 217.336H155.518V225.06H163.243V217.336Z" fill="white"/>
<path d="M170.967 217.336H163.243V225.06H170.967V217.336Z" fill="white"/>
<path d="M178.691 217.336H170.967V225.06H178.691V217.336Z" fill="white"/>
<path d="M186.415 217.336H178.691V225.06H186.415V217.336Z" fill="white"/>
<path d="M209.587 217.336H201.863V225.06H209.587V217.336Z" fill="white"/>
<path d="M225.036 217.336H217.312V225.06H225.036V217.336Z" fill="white"/>
<path d="M24.2081 225.06H16.4839V232.784H24.2081V225.06Z" fill="white"/>
<path d="M70.5529 225.06H62.8288V232.784H70.5529V225.06Z" fill="white"/>
<path d="M86.0012 225.06H78.2771V232.784H86.0012V225.06Z" fill="white"/>
<path d="M101.449 225.06H93.7253V232.784H101.449V225.06Z" fill="white"/>
<path d="M124.622 225.06H116.898V232.784H124.622V225.06Z" fill="white"/>
<path d="M132.346 225.06H124.622V232.784H132.346V225.06Z" fill="white"/>
<path d="M140.07 225.06H132.346V232.784H140.07V225.06Z" fill="white"/>
<path d="M147.794 225.06H140.07V232.784H147.794V225.06Z" fill="white"/>
<path d="M155.518 225.06H147.794V232.784H155.518V225.06Z" fill="white"/>
<path d="M186.415 225.06H178.691V232.784H186.415V225.06Z" fill="white"/>
<path d="M194.139 225.06H186.415V232.784H194.139V225.06Z" fill="white"/>
<path d="M201.863 225.06H194.139V232.784H201.863V225.06Z" fill="white"/>
<path d="M209.587 225.06H201.863V232.784H209.587V225.06Z" fill="white"/>
<path d="M232.76 225.06H225.036V232.784H232.76V225.06Z" fill="white"/>
<path d="M240.484 225.06H232.76V232.784H240.484V225.06Z" fill="white"/>
<path d="M24.2081 232.784H16.4839V240.508H24.2081V232.784Z" fill="white"/>
<path d="M31.9322 232.784H24.2081V240.508H31.9322V232.784Z" fill="white"/>
<path d="M39.6564 232.784H31.9322V240.508H39.6564V232.784Z" fill="white"/>
<path d="M47.3805 232.784H39.6564V240.508H47.3805V232.784Z" fill="white"/>
<path d="M55.1046 232.784H47.3805V240.508H55.1046V232.784Z" fill="white"/>
<path d="M62.8288 232.784H55.1046V240.508H62.8288V232.784Z" fill="white"/>
<path d="M70.5529 232.784H62.8288V240.508H70.5529V232.784Z" fill="white"/>
<path d="M86.0012 232.784H78.2771V240.508H86.0012V232.784Z" fill="white"/>
<path d="M93.7253 232.784H86.0012V240.508H93.7253V232.784Z" fill="white"/>
<path d="M109.174 232.784H101.449V240.508H109.174V232.784Z" fill="white"/>
<path d="M124.622 232.784H116.898V240.508H124.622V232.784Z" fill="white"/>
<path d="M132.346 232.784H124.622V240.508H132.346V232.784Z" fill="white"/>
<path d="M186.415 232.784H178.691V240.508H186.415V232.784Z" fill="white"/>
<path d="M217.312 232.784H209.587V240.508H217.312V232.784Z" fill="white"/>
<path d="M225.036 232.784H217.312V240.508H225.036V232.784Z" fill="white"/>
</svg>
